<?xml version="1.0" encoding="UTF-8" standalone="no"?><svg width="72" height="72" viewBox="0 0 72 72" version="1.1" xmlns="http://www.w3.org/2000/svg" xmlns:xlink="http://www.w3.org/1999/xlink"><!--Generator: Sketch 45.2 (43514) - http://www.bohemiancoding.com/sketch--><title>Deine Monatsbox</title><desc>Created with Sketch.</desc><g stroke="none" stroke-width="1" fill="none" fill-rule="evenodd"><g><path d="M36,71 C49.1247415,71 60.9575636,63.7130173 66.9743781,52.3124409 C69.6055559,47.3269217 71,41.7649675 71,36 C71,16.6700338 55.3299662,1 36,1 C16.6700338,1 1,16.6700338 1,36 C1,55.3299662 16.6700338,71 36,71 Z" stroke="#000000" stroke-width="2"/><g transform="translate(21.000000, 20.400000)"><path d="M21.2425405,24.0245895 C21.7871351,22.9736421 22.0954595,21.7770105 22.0954595,20.5104842 C22.0954595,16.2965895 18.6913243,12.8826947 14.4912432,12.8826947 C14.2809459,12.8826947 14.0731622,12.8885895 13.8678919,12.9062737" stroke="#1D1D1B" stroke-width="2" stroke-linecap="round" stroke-linejoin="round"/><polygon fill="#1D1D1B" points="19.1708189 22.6677053 23.6666568 25.0121263 20.2507919 26.0942316"/><path d="M8.60132703,16.9596632 C8.05589459,18.0106105 7.74757027,19.2055579 7.74757027,20.4720842 C7.74757027,24.6876632 11.1525432,28.1015579 15.3509486,28.1015579 C15.5612459,28.1015579 15.7707054,28.0939789 15.9759757,28.0771368" stroke="#1D1D1B" stroke-width="2" stroke-linecap="round" stroke-linejoin="round"/><polygon fill="#1D1D1B" points="10.6116351 18.3477895 6.1157973 16.0016842 9.53166216 14.9212632"/><path d="M.837837838 9.26315789L30.1621622 9.26315789M15.0810811.631494737L15.0810811 9.01296842M30.4133459 30.4975158C30.4133459 31.1535158 29.8788054 31.6907789 29.2261297 31.6907789L1.81626486 31.6907789C1.16275135 31.6907789.628210811 31.1535158.628210811 30.4975158L.628210811 10.2061474C.628210811 9.55014737.967535135 8.59772632 1.38226486 8.09077895L6.72348108 1.55351579C7.13737297 1.04656842 8.01123784.631410526 8.66475135.631410526L23.0051838.631410526C23.6578595.631410526 24.5124541 1.06172632 24.9028865 1.58804211L29.7036973 8.05625263C30.0941297 8.58256842 30.4133459 9.55014737 30.4133459 10.2061474L30.4133459 30.4975158z" stroke="#1D1D1B" stroke-width="2" stroke-linecap="round" stroke-linejoin="round"/></g></g></g></svg>
