<?xml version="1.0" encoding="UTF-8" standalone="no"?><svg width="72" height="72" viewBox="0 0 72 72" version="1.1" xmlns="http://www.w3.org/2000/svg" xmlns:xlink="http://www.w3.org/1999/xlink"><!--Generator: Sketch 45.2 (43514) - http://www.bohemiancoding.com/sketch--><title>Deine Flexibilität</title><desc>Created with Sketch.</desc><g stroke="none" stroke-width="1" fill="none" fill-rule="evenodd"><g stroke-width="2"><path d="M36,71 C49.1247415,71 60.9575636,63.7130173 66.9743781,52.3124409 C69.6055559,47.3269217 71,41.7649675 71,36 C71,16.6700338 55.3299662,1 36,1 C16.6700338,1 1,16.6700338 1,36 C1,55.3299662 16.6700338,71 36,71 Z" stroke="#000000"/><g stroke="#1D1D1B" stroke-linecap="round" stroke-linejoin="round"><path d="M17.2855235,23.4693858 C17.2855235,21.5532692 15.6549989,20 13.6427618,20 C11.6313101,20 10,21.5532692 10,23.4693858 C10,24.6221906 10.5906332,25.6433357 11.4993601,26.2742044 L10.5576457,33.8367915 L16.7286632,33.8367915 L15.7869488,26.2742044 C16.6948903,25.6425521 17.2855235,24.6221906 17.2855235,23.4693858 Z" transform="translate(22.000000, 12.700000)"/><path d="M25.3187059,16.1205354 C25.1916176,16.1222375 25.4065588,15.6839397 25.7963529,15.1460673 C25.7963529,15.1460673 25.8151176,15.1205354 25.9967941,14.8209609 C28.4848235,10.7324503 27.3887941,5.22947157 23.5010882,2.29245029 C23.2571471,2.10862051 23.0072353,1.93330136 22.7573235,1.77159923 C21.6382647,1.04564178 20.4577941,0.541811997 19.227,0.263514125 C17.4230294,-0.14414545 15.9619412,0.0226630609 15.4297059,0.100960933 C12.4930294,0.529897103 10.5790294,2.16904604 9.54782353,3.05159923 C7.85388235,4.501812 6.75017647,6.33755668 6.75017647,6.33755668 C6.409,6.90691838 6.58555882,7.66776944 7.14252941,8.02947157 L8.74691176,9.07032264 C9.30473529,9.43202476 10.0706765,9.28138647 10.4485294,8.73585455 C10.4485294,8.73585455 12.5987941,5.63968434 14.2185294,4.89585455 C16.1734706,3.99713115 18.2964412,4.08734391 20.0415588,5.141812 C20.1046765,5.17925881 20.1652353,5.21670561 20.2240882,5.25585455 C21.9572647,6.37925881 22.8895294,8.20138647 22.7829118,10.2550035 C22.6856765,12.1409609 21.4463529,13.8158546 19.7293824,16.1333014 C19.7276765,16.1358546 19.7259706,16.1384077 19.7242647,16.1409609 L1.20861765,16.1622375 C0.544176471,16.1630886 0,16.7060673 0,17.3698971 L0,38.1137269 C0,38.7767056 0.544176471,39.3196843 1.20861765,39.3196843 L26.9674412,39.3196843 C27.6318824,39.3196843 28.1769118,38.7767056 28.1769118,38.1137269 L28.1769118,17.2898971 C28.1769118,16.6260673 27.6318824,16.0907482 26.9674412,16.0992588 L26.7576176,16.101812 C26.0931765,16.1103226 25.4449412,16.1188333 25.3187059,16.1205354 Z" transform="translate(22.000000, 12.700000)"/></g></g></g></svg>
